<svg width="412pt" height="194pt" viewBox="0.00 0.00 412.00 194.00" xmlns="http://www.w3.org/2000/svg" xmlns:xlink="http://www.w3.org/1999/xlink">
<g id="graph1" class="graph" transform="scale(1 1) rotate(0) translate(4 190)">
<title>Example of a Network Graph</title>
<polygon fill="white" stroke="white" points="-4,5 -4,-190 409,-190 409,5 -4,5"></polygon>
<!-- Page 1 -->
<g id="node1" class="node"><title>Page 1</title>
<ellipse fill="none" stroke="black" cx="37" cy="-84" rx="37.0989" ry="37.0989"></ellipse>
<text text-anchor="middle" x="37" y="-79.8" font-family="Times,serif" font-size="14.00">Page 1</text>
</g>
<!-- Page 2 -->
<g id="node3" class="node"><title>Page 2</title>
<ellipse fill="none" stroke="black" cx="147" cy="-149" rx="37.0989" ry="37.0989"></ellipse>
<text text-anchor="middle" x="147" y="-144.8" font-family="Times,serif" font-size="14.00">Page 2</text>
</g>
<!-- Page 1&#45;&gt;Page 2 -->
<g id="edge2" class="edge"><title>Page 1-&gt;Page 2</title>
<path fill="none" stroke="black" d="M71.5799,-97.9088C83.5384,-104.556 97.0638,-112.652 109.273,-120.462"></path>
<polygon fill="black" stroke="black" points="107.599,-123.549 117.889,-126.074 111.419,-117.684 107.599,-123.549"></polygon>
</g>
<!-- Page 3 -->
<g id="node5" class="node"><title>Page 3</title>
<ellipse fill="none" stroke="black" cx="257" cy="-111" rx="37.0989" ry="37.0989"></ellipse>
<text text-anchor="middle" x="257" y="-106.8" font-family="Times,serif" font-size="14.00">Page 3</text>
</g>
<!-- Page 1&#45;&gt;Page 3 -->
<g id="edge4" class="edge"><title>Page 1-&gt;Page 3</title>
<path fill="none" stroke="black" d="M73.9983,-88.4585C111.156,-93.0606 169.26,-100.257 209.789,-105.277"></path>
<polygon fill="black" stroke="black" points="209.594,-108.779 219.948,-106.535 210.454,-101.832 209.594,-108.779"></polygon>
</g>
<!-- Page 4 -->
<g id="node7" class="node"><title>Page 4</title>
<ellipse fill="none" stroke="black" cx="367" cy="-37" rx="37.0989" ry="37.0989"></ellipse>
<text text-anchor="middle" x="367" y="-32.8" font-family="Times,serif" font-size="14.00">Page 4</text>
</g>
<!-- Page 1&#45;&gt;Page 4 -->
<g id="edge6" class="edge"><title>Page 1-&gt;Page 4</title>
<path fill="none" stroke="black" d="M73.1017,-74.5998C132.634,-63.0732 253.384,-45.6036 319.741,-38.7573"></path>
<polygon fill="black" stroke="black" points="320.299,-42.2193 329.906,-37.7523 319.61,-35.2533 320.299,-42.2193"></polygon>
</g>
<!-- Page 2&#45;&gt;Page 1 -->
<g id="edge10" class="edge"><title>Page 2-&gt;Page 1</title>
<path fill="none" stroke="black" d="M112.443,-135.104C100.555,-128.497 87.1154,-120.456 74.9596,-112.686"></path>
<polygon fill="black" stroke="black" points="76.6665,-109.621 66.3757,-107.101 72.849,-115.489 76.6665,-109.621"></polygon>
</g>
<!-- Page 2&#45;&gt;Page 3 -->
<g id="edge12" class="edge"><title>Page 2-&gt;Page 3</title>
<path fill="none" stroke="black" d="M182.172,-136.977C191.627,-133.65 202.024,-129.992 211.955,-126.497"></path>
<polygon fill="black" stroke="black" points="213.408,-129.696 221.68,-123.076 211.085,-123.093 213.408,-129.696"></polygon>
</g>
<!-- Page 3&#45;&gt;Page 4 -->
<g id="edge14" class="edge"><title>Page 3-&gt;Page 4</title>
<path fill="none" stroke="black" d="M288.084,-90.3869C300.372,-81.9674 314.73,-72.1292 327.75,-63.2083"></path>
<polygon fill="black" stroke="black" points="329.806,-66.0422 336.077,-57.5026 325.85,-60.2677 329.806,-66.0422"></polygon>
</g>
<!-- Page 4&#45;&gt;Page 1 -->
<g id="edge8" class="edge"><title>Page 4-&gt;Page 1</title>
<path fill="none" stroke="black" d="M330.974,-46.3856C271.55,-57.896 150.979,-75.3449 84.5363,-82.2141"></path>
<polygon fill="black" stroke="black" points="83.961,-78.7539 74.355,-83.2232 84.6514,-85.7197 83.961,-78.7539"></polygon>
</g>
</g>
</svg>
